<svg xmlns="http://www.w3.org/2000/svg" width="1024" height="1024" viewBox="0 0 1024 1024" fill="none">
  <defs>
    <linearGradient id="background" x1="170" y1="86" x2="866" y2="938" gradientUnits="userSpaceOnUse">
      <stop offset="0" stop-color="#E8F5FF"/>
      <stop offset="0.46" stop-color="#8FD3FF"/>
      <stop offset="1" stop-color="#0B5CA8"/>
    </linearGradient>
    <linearGradient id="shieldStroke" x1="313" y1="214" x2="725" y2="813" gradientUnits="userSpaceOnUse">
      <stop offset="0" stop-color="#06111F"/>
      <stop offset="1" stop-color="#052947"/>
    </linearGradient>
    <filter id="softShadow" x="150" y="143" width="724" height="782" filterUnits="userSpaceOnUse" color-interpolation-filters="sRGB">
      <feFlood flood-opacity="0" result="BackgroundImageFix"/>
      <feColorMatrix in="SourceAlpha" type="matrix" values="0 0 0 0 0 0 0 0 0 0 0 0 0 0 0 0 0 0 127 0" result="hardAlpha"/>
      <feOffset dy="28"/>
      <feGaussianBlur stdDeviation="38"/>
      <feComposite in2="hardAlpha" operator="out"/>
      <feColorMatrix type="matrix" values="0 0 0 0 0.02 0 0 0 0 0.09 0 0 0 0 0.16 0 0 0 0.22 0"/>
      <feBlend mode="normal" in2="BackgroundImageFix" result="effect1_dropShadow"/>
      <feBlend mode="normal" in="SourceGraphic" in2="effect1_dropShadow" result="shape"/>
    </filter>
  </defs>

  <rect width="1024" height="1024" rx="224" fill="url(#background)"/>
  <path d="M111 246C146 153 221 96 324 86H700C803 96 878 153 913 246V699C878 792 803 849 700 858H324C221 849 146 792 111 699V246Z" fill="white" fill-opacity="0.15"/>
  <path d="M0 743C149 681 306 651 473 653C658 655 841 607 1024 510V1024H0V743Z" fill="#073B68" fill-opacity="0.26"/>

  <g filter="url(#softShadow)">
    <path d="M512 214L735 313V462C735 611 641 710 512 760C383 710 289 611 289 462V313L512 214Z" fill="white" fill-opacity="0.9"/>
    <path d="M512 214L735 313V462C735 611 641 710 512 760C383 710 289 611 289 462V313L512 214Z" stroke="url(#shieldStroke)" stroke-width="54" stroke-linecap="round" stroke-linejoin="round"/>
    <path d="M351 449C444 376 580 376 673 449" stroke="#0D2B45" stroke-width="54" stroke-linecap="round"/>
    <path d="M424 540C474 501 550 501 600 540" stroke="#0D2B45" stroke-width="54" stroke-linecap="round"/>
    <circle cx="512" cy="621" r="30" fill="#0D2B45"/>
  </g>

  <circle cx="752" cy="248" r="74" fill="#22C55E"/>
  <circle cx="752" cy="248" r="95" stroke="white" stroke-opacity="0.7" stroke-width="24"/>
</svg>
